<svg width="19" height="20" viewBox="0 0 19 20" fill="none" xmlns="http://www.w3.org/2000/svg">
<g id="Delete">
<path id="Stroke 1" d="M16.3249 7.4682C16.3249 7.4682 15.7819 14.2032 15.4669 17.0402C15.3169 18.3952 14.4799 19.1892 13.1089 19.2142C10.4999 19.2612 7.8879 19.2642 5.2799 19.2092C3.9609 19.1822 3.1379 18.3782 2.9909 17.0472C2.6739 14.1852 2.1339 7.4682 2.1339 7.4682" stroke="white" stroke-width="1.5" stroke-linecap="round" stroke-linejoin="round"/>
<path id="Stroke 3" d="M17.7082 4.23969H0.750198" stroke="white" stroke-width="1.5" stroke-linecap="round" stroke-linejoin="round"/>
<path id="Stroke 5" d="M14.4406 4.23967C13.6556 4.23967 12.9796 3.68467 12.8256 2.91567L12.5826 1.69967C12.4326 1.13867 11.9246 0.750671 11.3456 0.750671H7.1126C6.5336 0.750671 6.0256 1.13867 5.8756 1.69967L5.6326 2.91567C5.4786 3.68467 4.8026 4.23967 4.0176 4.23967" stroke="white" stroke-width="1.5" stroke-linecap="round" stroke-linejoin="round"/>
</g>
</svg>
