<svg width="13" height="13" viewBox="0 0 13 13" fill="none" xmlns="http://www.w3.org/2000/svg">
<g id="Edit Square">
<path id="Stroke 1" d="M6.225 1.51074H4.1997C2.53408 1.51074 1.48975 2.68995 1.48975 4.35937V8.86278C1.48975 10.5322 2.5292 11.7114 4.1997 11.7114H8.97937C10.6504 11.7114 11.6899 10.5322 11.6899 8.86278V6.68095" stroke="white" stroke-width="1.5" stroke-linecap="round" stroke-linejoin="round"/>
<path id="Stroke 3" fill-rule="evenodd" clip-rule="evenodd" d="M4.78172 5.91543L8.82959 1.86756C9.33388 1.36381 10.1513 1.36381 10.6555 1.86756L11.3148 2.52677C11.819 3.03106 11.819 3.84898 11.3148 4.35273L7.24738 8.4201C7.02692 8.64056 6.72792 8.7646 6.41592 8.7646H4.38684L4.43776 6.7171C4.44534 6.41593 4.5683 6.12885 4.78172 5.91543Z" stroke="white" stroke-width="1.5" stroke-linecap="round" stroke-linejoin="round"/>
<path id="Stroke 5" d="M8.21448 2.49292L10.6877 4.96617" stroke="white" stroke-width="1.5" stroke-linecap="round" stroke-linejoin="round"/>
</g>
</svg>
