<svg width="24" height="24" viewBox="0 0 24 24" fill="none" xmlns="http://www.w3.org/2000/svg">
<path d="M20.1333 5.49667L20.1522 5.47895L20.1698 5.4599C20.8037 4.77187 20.9637 3.8113 20.5875 2.95309C20.2139 2.10077 19.4059 1.57129 18.4789 1.57129H3.83447C2.92439 1.57129 2.12252 2.0872 1.74174 2.91763C1.35827 3.75395 1.49255 4.70594 2.0921 5.4021L2.11484 5.42849L8.68463 11.6828L8.73225 18.997C8.73476 19.3838 9.04906 19.6956 9.43526 19.6956L9.43995 19.6956C9.82826 19.693 10.141 19.3762 10.1385 18.9879L10.087 11.0762L3.13826 4.4612C2.91499 4.18563 2.87046 3.82996 3.02004 3.50376C3.17112 3.17425 3.4756 2.97754 3.83449 2.97754H18.4789C18.8445 2.97754 19.1513 3.17948 19.2996 3.5177C19.4475 3.85499 19.3916 4.21687 19.1507 4.49029L12.0226 11.166L12.0532 21.9152C12.0543 22.3028 12.3688 22.6163 12.7562 22.6163H12.7583C13.1466 22.6152 13.4605 22.2995 13.4594 21.9112L13.4306 11.7741L20.1333 5.49667Z" fill="white"/>
<path d="M15.4046 13.952C15.4046 14.3387 15.721 14.6551 16.1077 14.6551H21.824C22.2107 14.6551 22.5271 14.3387 22.5271 13.952C22.5271 13.5653 22.2107 13.249 21.824 13.249H16.1077C15.721 13.249 15.4046 13.5653 15.4046 13.952ZM21.824 17.2071H16.1077C15.721 17.2071 15.4046 17.5234 15.4046 17.9101C15.4046 18.2968 15.721 18.6132 16.1077 18.6132H21.824C22.2107 18.6132 22.5271 18.2968 22.5271 17.9101C22.5271 17.5234 22.2107 17.2071 21.824 17.2071ZM21.824 21.1651H16.1077C15.721 21.1651 15.4046 21.4815 15.4046 21.8682C15.4046 22.2549 15.721 22.5713 16.1077 22.5713H21.824C22.2107 22.5713 22.5271 22.2549 22.5271 21.8682C22.5271 21.4815 22.2107 21.1651 21.824 21.1651Z" fill="white"/>
</svg>
