<svg width="46" height="46" viewBox="0 0 46 46" fill="none" xmlns="http://www.w3.org/2000/svg">
<rect width="46" height="46" rx="10" fill="url(#paint0_linear_673_1958)"/>
<g filter="url(#filter0_d_673_1958)">
<path d="M37 34.9961V36H9V34.9981C9 34.7403 9.10108 34.4931 9.28106 34.3106C9.46104 34.1282 9.70521 34.0254 9.96001 34.0249H10.7907C10.7878 33.9922 10.7864 33.9595 10.7866 33.9267V33.0209C10.7872 32.7635 10.8885 32.5168 11.0684 32.3348C11.2483 32.1527 11.4922 32.0502 11.7466 32.0497H12.5753V24.6541H11.9548C11.6579 24.6541 11.3731 24.5348 11.1631 24.3224C10.9531 24.1099 10.8351 23.8218 10.8351 23.5214C10.8351 23.221 10.9531 22.9328 11.1631 22.7204C11.3731 22.508 11.6579 22.3886 11.9548 22.3886H34.1119C34.4088 22.3886 34.6936 22.508 34.9036 22.7204C35.1136 22.9328 35.2316 23.221 35.2316 23.5214C35.2316 23.8218 35.1136 24.1099 34.9036 24.3224C34.6936 24.5348 34.4088 24.6541 34.1119 24.6541H33.5217V32.0497H34.2534C34.5078 32.0502 34.7517 32.1527 34.9316 32.3348C35.1115 32.5168 35.2128 32.7635 35.2134 33.0209V33.9267C35.2135 33.9595 35.2115 33.9923 35.2073 34.0249H36.04C36.2944 34.0254 36.5383 34.1279 36.7182 34.3099C36.8982 34.4919 36.9995 34.7387 37 34.9961ZM33.5237 20.5955C33.5237 17.7854 32.4203 15.0904 30.4562 13.1033C28.4921 11.1163 25.8282 10 23.0505 10C20.2729 10 17.609 11.1163 15.6448 13.1033C13.6807 15.0904 12.5773 17.7854 12.5773 20.5955H33.5237ZM14.9541 32.0497H17.1955V25.7889C17.1955 25.4882 17.0774 25.1999 16.8672 24.9872C16.6571 24.7746 16.372 24.6552 16.0748 24.6552C15.7776 24.6552 15.4925 24.7746 15.2823 24.9872C15.0722 25.1999 14.9541 25.4882 14.9541 25.7889V32.0497ZM19.5904 25.8073V32.0497H21.8318V25.8073C21.8318 25.5066 21.7137 25.2183 21.5036 25.0056C21.2934 24.793 21.0084 24.6736 20.7111 24.6736C20.4139 24.6736 20.1289 24.793 19.9187 25.0056C19.7085 25.2183 19.5904 25.5066 19.5904 25.8073ZM24.2268 25.8237V32.0497H26.4682V25.8237C26.4682 25.523 26.3501 25.2346 26.1399 25.022C25.9298 24.8094 25.6447 24.6899 25.3475 24.6899C25.0503 24.6899 24.7652 24.8094 24.555 25.022C24.3449 25.2346 24.2268 25.523 24.2268 25.8237ZM28.8631 25.84V32.0497H31.1045V25.84C31.1045 25.5394 30.9864 25.251 30.7763 25.0383C30.5661 24.8257 30.2811 24.7063 29.9838 24.7063C29.6866 24.7063 29.4016 24.8257 29.1914 25.0383C28.9812 25.251 28.8631 25.5394 28.8631 25.84Z" fill="white"/>
</g>
<defs>
<filter id="filter0_d_673_1958" x="7" y="10" width="32" height="30" filterUnits="userSpaceOnUse" color-interpolation-filters="sRGB">
<feFlood flood-opacity="0" result="BackgroundImageFix"/>
<feColorMatrix in="SourceAlpha" type="matrix" values="0 0 0 0 0 0 0 0 0 0 0 0 0 0 0 0 0 0 127 0" result="hardAlpha"/>
<feOffset dy="2"/>
<feGaussianBlur stdDeviation="1"/>
<feComposite in2="hardAlpha" operator="out"/>
<feColorMatrix type="matrix" values="0 0 0 0 0 0 0 0 0 0 0 0 0 0 0 0 0 0 0.2 0"/>
<feBlend mode="normal" in2="BackgroundImageFix" result="effect1_dropShadow_673_1958"/>
<feBlend mode="normal" in="SourceGraphic" in2="effect1_dropShadow_673_1958" result="shape"/>
</filter>
<linearGradient id="paint0_linear_673_1958" x1="23" y1="0" x2="23" y2="46" gradientUnits="userSpaceOnUse">
<stop stop-color="#009688"/>
<stop offset="1" stop-color="#00796B"/>
</linearGradient>
</defs>
</svg>
