<svg width="48" height="36" viewBox="0 0 48 36" fill="none" xmlns="http://www.w3.org/2000/svg">
<g clip-path="url(#clip0_795_2559)">
<path d="M0 0H48V12H0V0Z" fill="#FF9933"/>
<path d="M0 12H48V24H0V12Z" fill="white"/>
<path d="M0 24H48V36H0V24Z" fill="#128807"/>
<path d="M24 22.8C26.651 22.8 28.8 20.651 28.8 18C28.8 15.349 26.651 13.2 24 13.2C21.349 13.2 19.2 15.349 19.2 18C19.2 20.651 21.349 22.8 24 22.8Z" fill="#000088"/>
<path d="M24 22.2C26.3196 22.2 28.2 20.3196 28.2 18C28.2 15.6804 26.3196 13.8 24 13.8C21.6804 13.8 19.8 15.6804 19.8 18C19.8 20.3196 21.6804 22.2 24 22.2Z" fill="white"/>
<path d="M24 18.84C24.4639 18.84 24.84 18.464 24.84 18C24.84 17.5361 24.4639 17.16 24 17.16C23.5361 17.16 23.16 17.5361 23.16 18C23.16 18.464 23.5361 18.84 24 18.84Z" fill="#000088"/>
<path d="M28.1358 18.7639C28.2541 18.7795 28.3626 18.6962 28.3781 18.578C28.3937 18.4597 28.3105 18.3512 28.1922 18.3356C28.0739 18.3201 27.9654 18.4033 27.9498 18.5216C27.9343 18.6399 28.0175 18.7484 28.1358 18.7639Z" fill="#000088"/>
<path d="M24 22.2L24.144 19.68L24 18.48L23.856 19.68L24 22.2Z" fill="#000088"/>
<path d="M27.7972 19.8083C27.9074 19.854 28.0337 19.8016 28.0794 19.6914C28.125 19.5812 28.0727 19.4549 27.9625 19.4092C27.8523 19.3635 27.7259 19.4159 27.6803 19.5261C27.6346 19.6363 27.6869 19.7627 27.7972 19.8083Z" fill="#000088"/>
<path d="M22.913 22.0569L23.7043 19.66L23.8758 18.4637L23.4261 19.5855L22.913 22.0569Z" fill="#000088"/>
<path d="M27.1997 20.7295C27.2944 20.8021 27.43 20.7842 27.5026 20.6896C27.5752 20.595 27.5574 20.4594 27.4627 20.3867C27.3681 20.3141 27.2325 20.332 27.1599 20.4266C27.0872 20.5213 27.1051 20.6568 27.1997 20.7295Z" fill="#000088"/>
<path d="M21.9 21.6373L23.2847 19.5269L23.76 18.4157L23.0353 19.3829L21.9 21.6373Z" fill="#000088"/>
<path d="M26.3843 21.4646C26.4569 21.5593 26.5925 21.5771 26.6871 21.5045C26.7818 21.4319 26.7996 21.2963 26.727 21.2016C26.6544 21.107 26.5188 21.0891 26.4241 21.1618C26.3295 21.2344 26.3116 21.37 26.3843 21.4646Z" fill="#000088"/>
<path d="M21.0301 20.9699L22.9139 19.2898L23.6606 18.3394L22.7102 19.0861L21.0301 20.9699Z" fill="#000088"/>
<path d="M25.4063 21.9637C25.452 22.0739 25.5783 22.1262 25.6885 22.0806C25.7987 22.0349 25.8511 21.9086 25.8054 21.7984C25.7598 21.6882 25.6334 21.6358 25.5232 21.6815C25.413 21.7271 25.3607 21.8535 25.4063 21.9637Z" fill="#000088"/>
<path d="M20.3627 20.1L22.6171 18.9647L23.5843 18.24L22.4731 18.7153L20.3627 20.1Z" fill="#000088"/>
<path d="M24.3325 22.1925C24.3481 22.3108 24.4566 22.3941 24.5749 22.3785C24.6931 22.3629 24.7764 22.2544 24.7608 22.1362C24.7453 22.0179 24.6368 21.9346 24.5185 21.9502C24.4002 21.9658 24.317 22.0743 24.3325 22.1925Z" fill="#000088"/>
<path d="M19.9431 19.087L22.4145 18.5739L23.5364 18.1242L22.34 18.2957L19.9431 19.087Z" fill="#000088"/>
<path d="M23.2361 22.1358C23.2205 22.2541 23.3038 22.3626 23.422 22.3782C23.5403 22.3937 23.6488 22.3105 23.6644 22.1922C23.6799 22.0739 23.5967 21.9654 23.4784 21.9498C23.3601 21.9343 23.2516 22.0175 23.2361 22.1358Z" fill="#000088"/>
<path d="M19.8 18.0003L22.32 18.1437L23.52 17.9998L22.32 17.8562L19.8 18.0003Z" fill="#000088"/>
<path d="M22.1917 21.7972C22.146 21.9074 22.1984 22.0338 22.3086 22.0794C22.4188 22.1251 22.5452 22.0727 22.5908 21.9625C22.6365 21.8523 22.5841 21.7259 22.4739 21.6803C22.3637 21.6346 22.2373 21.687 22.1917 21.7972Z" fill="#000088"/>
<path d="M19.9431 16.913L22.34 17.7043L23.5364 17.8758L22.4145 17.4261L19.9431 16.913Z" fill="#000088"/>
<path d="M21.2705 21.1997C21.1979 21.2943 21.2157 21.4299 21.3104 21.5026C21.405 21.5752 21.5406 21.5573 21.6132 21.4627C21.6859 21.368 21.668 21.2324 21.5734 21.1598C21.4787 21.0872 21.3431 21.1051 21.2705 21.1997Z" fill="#000088"/>
<path d="M20.3627 15.9L22.4731 17.2847L23.5843 17.76L22.6171 17.0353L20.3627 15.9Z" fill="#000088"/>
<path d="M20.5354 20.3842C20.4407 20.4568 20.4229 20.5924 20.4955 20.6871C20.5681 20.7817 20.7037 20.7996 20.7984 20.7269C20.893 20.6543 20.9109 20.5187 20.8382 20.4241C20.7656 20.3294 20.63 20.3116 20.5354 20.3842Z" fill="#000088"/>
<path d="M21.0302 15.0301L22.7102 16.9138L23.6606 17.6605L22.9139 16.7102L21.0302 15.0301Z" fill="#000088"/>
<path d="M20.0363 19.4064C19.9261 19.452 19.8738 19.5784 19.9194 19.6886C19.9651 19.7988 20.0914 19.8511 20.2016 19.8055C20.3119 19.7598 20.3642 19.6335 20.3185 19.5233C20.2729 19.4131 20.1465 19.3607 20.0363 19.4064Z" fill="#000088"/>
<path d="M21.9 14.3627L23.0353 16.6171L23.76 17.5843L23.2847 16.4731L21.9 14.3627Z" fill="#000088"/>
<path d="M19.8074 18.3325C19.6891 18.3481 19.6059 18.4566 19.6214 18.5749C19.637 18.6932 19.7455 18.7764 19.8638 18.7609C19.9821 18.7453 20.0653 18.6368 20.0498 18.5185C20.0342 18.4002 19.9257 18.317 19.8074 18.3325Z" fill="#000088"/>
<path d="M22.913 13.9431L23.4261 16.4145L23.8758 17.5363L23.7043 16.34L22.913 13.9431Z" fill="#000088"/>
<path d="M19.8642 17.236C19.7459 17.2204 19.6374 17.3037 19.6219 17.422C19.6063 17.5402 19.6895 17.6487 19.8078 17.6643C19.9261 17.6799 20.0346 17.5966 20.0501 17.4784C20.0657 17.3601 19.9825 17.2516 19.8642 17.236Z" fill="#000088"/>
<path d="M23.9999 13.8L23.8561 16.32L24.0001 17.52L24.1439 16.32L23.9999 13.8Z" fill="#000088"/>
<path d="M20.2028 16.1917C20.0926 16.146 19.9663 16.1984 19.9206 16.3086C19.875 16.4188 19.9273 16.5451 20.0375 16.5908C20.1477 16.6365 20.2741 16.5841 20.3197 16.4739C20.3654 16.3637 20.313 16.2373 20.2028 16.1917Z" fill="#000088"/>
<path d="M25.087 13.9432L24.2957 16.34L24.1242 17.5364L24.5739 16.4146L25.087 13.9432Z" fill="#000088"/>
<path d="M20.8003 15.2705C20.7056 15.1979 20.57 15.2158 20.4974 15.3104C20.4248 15.405 20.4426 15.5406 20.5373 15.6133C20.6319 15.6859 20.7675 15.668 20.8401 15.5734C20.9128 15.4787 20.8949 15.3432 20.8003 15.2705Z" fill="#000088"/>
<path d="M26.1 14.3628L24.7153 16.4731L24.24 17.5844L24.9647 16.6171L26.1 14.3628Z" fill="#000088"/>
<path d="M21.6157 14.5354C21.5431 14.4407 21.4075 14.4229 21.3129 14.4955C21.2182 14.5681 21.2004 14.7037 21.273 14.7984C21.3456 14.893 21.4812 14.9109 21.5759 14.8382C21.6705 14.7656 21.6884 14.63 21.6157 14.5354Z" fill="#000088"/>
<path d="M26.9699 15.0302L25.0861 16.7103L24.3394 17.6606L25.2898 16.9139L26.9699 15.0302Z" fill="#000088"/>
<path d="M22.5937 14.0364C22.548 13.9262 22.4217 13.8738 22.3115 13.9195C22.2012 13.9651 22.1489 14.0915 22.1946 14.2017C22.2402 14.3119 22.3666 14.3642 22.4768 14.3186C22.587 14.2729 22.6393 14.1466 22.5937 14.0364Z" fill="#000088"/>
<path d="M27.6373 15.9001L25.3829 17.0354L24.4157 17.7601L25.5269 17.2848L27.6373 15.9001Z" fill="#000088"/>
<path d="M23.6675 13.8075C23.6519 13.6893 23.5434 13.606 23.4251 13.6216C23.3068 13.6371 23.2236 13.7456 23.2392 13.8639C23.2547 13.9822 23.3632 14.0654 23.4815 14.0499C23.5998 14.0343 23.683 13.9258 23.6675 13.8075Z" fill="#000088"/>
<path d="M28.0569 16.9131L25.5855 17.4262L24.4636 17.8759L25.66 17.7044L28.0569 16.9131Z" fill="#000088"/>
<path d="M24.7639 13.8642C24.7795 13.746 24.6962 13.6375 24.578 13.6219C24.4597 13.6063 24.3512 13.6896 24.3356 13.8079C24.3201 13.9262 24.4033 14.0347 24.5216 14.0502C24.6399 14.0658 24.7484 13.9825 24.7639 13.8642Z" fill="#000088"/>
<path d="M28.2 17.9997L25.68 17.8565L24.48 18.0003L25.68 18.1438L28.2 17.9997Z" fill="#000088"/>
<path d="M25.8083 14.2029C25.854 14.0926 25.8016 13.9663 25.6914 13.9206C25.5812 13.875 25.4548 13.9273 25.4092 14.0376C25.3635 14.1478 25.4159 14.2741 25.5261 14.3198C25.6363 14.3654 25.7627 14.3131 25.8083 14.2029Z" fill="#000088"/>
<path d="M28.0569 19.087L25.66 18.2957L24.4636 18.1243L25.5855 18.5739L28.0569 19.087Z" fill="#000088"/>
<path d="M26.7295 14.8003C26.8021 14.7056 26.7842 14.5701 26.6896 14.4974C26.5949 14.4248 26.4593 14.4427 26.3867 14.5373C26.3141 14.632 26.332 14.7675 26.4266 14.8402C26.5212 14.9128 26.6568 14.8949 26.7295 14.8003Z" fill="#000088"/>
<path d="M27.6373 20.1L25.5269 18.7153L24.4157 18.24L25.3829 18.9647L27.6373 20.1Z" fill="#000088"/>
<path d="M27.4646 15.6158C27.5593 15.5431 27.5771 15.4076 27.5045 15.3129C27.4319 15.2183 27.2963 15.2004 27.2016 15.273C27.107 15.3457 27.0891 15.4813 27.1618 15.5759C27.2344 15.6705 27.37 15.6884 27.4646 15.6158Z" fill="#000088"/>
<path d="M26.9698 20.9699L25.2898 19.0862L24.3394 18.3395L25.0861 19.2898L26.9698 20.9699Z" fill="#000088"/>
<path d="M27.9636 16.5937C28.0739 16.5481 28.1262 16.4217 28.0805 16.3115C28.0349 16.2013 27.9085 16.149 27.7983 16.1946C27.6881 16.2403 27.6358 16.3666 27.6814 16.4768C27.7271 16.5871 27.8534 16.6394 27.9636 16.5937Z" fill="#000088"/>
<path d="M26.1 21.6374L24.9647 19.383L24.24 18.4158L24.7153 19.527L26.1 21.6374Z" fill="#000088"/>
<path d="M28.1926 17.6676C28.3108 17.652 28.3941 17.5435 28.3785 17.4252C28.363 17.3069 28.2544 17.2237 28.1362 17.2393C28.0179 17.2548 27.9347 17.3633 27.9502 17.4816C27.9658 17.5999 28.0743 17.6831 28.1926 17.6676Z" fill="#000088"/>
<path d="M25.087 22.0569L24.5739 19.5855L24.1242 18.4637L24.2957 19.6601L25.087 22.0569Z" fill="#000088"/>
</g>
<defs>
<clipPath id="clip0_795_2559">
<rect width="48" height="36" fill="white"/>
</clipPath>
</defs>
</svg>
