<svg width="222" height="275" viewBox="0 0 222 275" fill="none" xmlns="http://www.w3.org/2000/svg">
<path d="M93 146L96.1436 146.185C99.6939 146.394 103.255 146.061 106.705 145.199V145.199C109.886 144.403 112.939 143.166 115.776 141.523L182.872 102.653C183.62 102.22 184.426 101.894 185.264 101.684L186.122 101.469C188.549 100.863 191.118 101.494 192.988 103.156V103.156C193.978 104.036 194.721 105.162 195.14 106.42L195.433 107.3C195.809 108.426 196 109.605 196 110.792V193.324C196 195.1 195.763 196.868 195.296 198.582V198.582C194.768 200.516 193.953 202.36 192.876 204.052L192.521 204.61C191.513 206.195 190.275 207.621 188.849 208.844V208.844C187.952 209.613 186.985 210.297 185.961 210.887L109.173 255.112C108.726 255.37 108.253 255.582 107.763 255.746L107.379 255.874C106.155 256.282 104.836 256.31 103.595 255.956V255.956C102.549 255.657 101.596 255.096 100.827 254.327L99.5 253M93 146L94.5 149L95.8194 151.45C97.2651 154.135 98.304 157.02 98.902 160.01V160.01C99.2997 161.999 99.5 164.021 99.5 166.049V237.5V253M93 146L16.6312 101.941C15.5501 101.317 14.3801 100.862 13.1616 100.591L12.1025 100.356C11.047 100.122 9.95296 100.122 8.89751 100.356L8.4027 100.466C6.86081 100.809 5.51086 101.734 4.63471 103.048V103.048C4.2152 103.677 3.91584 104.379 3.75178 105.117L3.37014 106.834C3.12412 107.941 3 109.072 3 110.206V189.039C3 191.673 3.26019 194.301 3.77677 196.884L4 198L4.45083 199.578C5.46683 203.134 7.37233 206.372 9.98743 208.987V208.987C11.3235 210.323 12.8278 211.48 14.4625 212.427L88.6957 255.454C89.8776 256.139 91.2194 256.5 92.5855 256.5V256.5C94.4644 256.5 96.2794 255.818 97.6934 254.581L99.5 253" stroke="#6C6CF4" stroke-width="5"/>
<path d="M18.004 77.0042L93.8371 33.449C96.4787 31.9318 99.7304 31.9442 102.36 33.4818L178.46 77.9703C184.096 81.2655 184.067 89.4215 178.407 92.6766L103.355 135.842C100.734 137.349 97.51 137.351 94.8877 135.846L18.0082 91.7481C12.3157 88.4829 12.3134 80.2726 18.004 77.0042Z" stroke="#6C6CF4" stroke-width="5"/>
<line x1="18.1765" y1="121.794" x2="78.1765" y2="153.794" stroke="#6C6CF4" stroke-width="5"/>
<line x1="18.2257" y1="135.821" x2="50.2257" y2="153.821" stroke="#6C6CF4" stroke-width="5"/>
<path d="M189.191 194.959C189.191 197.459 187.857 199.77 185.692 201.021L124.273 236.485C117.961 240.129 110.976 232.903 114.833 226.718L176.252 128.246C179.976 122.276 189.191 124.914 189.191 131.95L189.191 194.959Z" fill="#6C6CF4"/>
</svg>
