<svg xmlns="http://www.w3.org/2000/svg" width="46" height="46" viewBox="0 0 46 46" fill="none">
    <rect width="46" height="46" rx="10" fill="url(#paint0_linear_662_255)"/>
    <g filter="url(#filter0_d_662_255)">
        <path d="M9.08748 15.3059C8.36245 16.031 8 16.8989 8 17.9093V31.6191C8 32.6298 8.36245 33.4977 9.08748 34.2227C9.81256 34.9477 10.6804 35.3103 11.6911 35.3103H12.2184V14.2182H11.6911C10.6802 14.2182 9.81239 14.5809 9.08748 15.3059Z" fill="white"/>
        <path fill-rule="evenodd" clip-rule="evenodd" d="M29.0919 11.5818C29.0919 11.1424 28.9382 10.7689 28.6306 10.4613C28.3232 10.1537 27.9495 10 27.5102 10H18.0188C17.5795 10 17.206 10.1537 16.8983 10.4613C16.5907 10.7688 16.4369 11.1423 16.4369 11.5818V14.2182H13.8004V35.3103H31.7283V14.2182H29.0919V11.5818ZM18.5461 12.1091H26.9829V14.2182H18.5461V12.1091ZM28.9438 26.7254C29.0426 26.6263 29.0919 26.5003 29.0919 26.3462V26.3461H29.0916V23.1824C29.0916 23.0283 29.0422 22.902 28.9437 22.8032C28.845 22.7045 28.7186 22.6552 28.5649 22.6552H24.8738V18.964C24.8738 18.8102 24.824 18.684 24.7253 18.585C24.6267 18.4862 24.5003 18.4368 24.3465 18.4368H21.1826C21.0287 18.4368 20.9025 18.4862 20.8036 18.585C20.7047 18.684 20.6553 18.8102 20.6553 18.964V22.6552H16.9642C16.8105 22.6552 16.6841 22.7046 16.5855 22.8032C16.4866 22.902 16.4372 23.0284 16.4372 23.1825V26.3462C16.4372 26.5003 16.4866 26.6262 16.5855 26.7254C16.6843 26.8239 16.8105 26.8735 16.9645 26.8735H20.6556V30.5646C20.6556 30.7182 20.7051 30.8446 20.8038 30.9434C20.9027 31.0421 21.0289 31.0915 21.1828 31.0915H24.3467C24.5006 31.0915 24.6271 31.0421 24.7254 30.9434C24.8242 30.8447 24.8739 30.7182 24.8739 30.5646V26.8735H28.565C28.7187 26.8735 28.845 26.8239 28.9438 26.7254Z" fill="white"/>
        <path d="M36.4414 15.3059C35.7163 14.5809 34.8484 14.2182 33.8378 14.2182H33.3104V35.3103H33.8378C34.8484 35.3103 35.7163 34.9478 36.4414 34.2227C37.1662 33.4977 37.5289 32.6298 37.5289 31.6191V17.9093C37.5288 16.8989 37.1662 16.031 36.4414 15.3059Z" fill="white"/>
    </g>
    <defs>
        <filter id="filter0_d_662_255" x="6" y="10" width="33.5289" height="29.3102" filterUnits="userSpaceOnUse" color-interpolation-filters="sRGB">
            <feFlood flood-opacity="0" result="BackgroundImageFix"/>
            <feColorMatrix in="SourceAlpha" type="matrix" values="0 0 0 0 0 0 0 0 0 0 0 0 0 0 0 0 0 0 127 0" result="hardAlpha"/>
            <feOffset dy="2"/>
            <feGaussianBlur stdDeviation="1"/>
            <feComposite in2="hardAlpha" operator="out"/>
            <feColorMatrix type="matrix" values="0 0 0 0 0 0 0 0 0 0 0 0 0 0 0 0 0 0 0.2 0"/>
            <feBlend mode="normal" in2="BackgroundImageFix" result="effect1_dropShadow_662_255"/>
            <feBlend mode="normal" in="SourceGraphic" in2="effect1_dropShadow_662_255" result="shape"/>
        </filter>
        <linearGradient id="paint0_linear_662_255" x1="23" y1="0" x2="23" y2="46" gradientUnits="userSpaceOnUse">
            <stop stop-color="#64B5F6"/>
            <stop offset="1" stop-color="#1E88E5"/>
        </linearGradient>
    </defs>
</svg>
