<svg xmlns="http://www.w3.org/2000/svg" width="46" height="46" viewBox="0 0 46 46" fill="none">
    <rect width="46" height="46" rx="10" fill="url(#paint0_linear_666_951)"/>
    <g filter="url(#filter0_d_666_951)">
        <path d="M11.078 32.2062C11.7967 32.9249 12.6638 33.2842 13.6795 33.2842H32.0761C33.0919 33.2842 33.959 32.9249 34.6774 32.2062C35.3958 31.4878 35.7552 30.6206 35.7552 29.6049H10C10.0002 30.6206 10.3595 31.4878 11.078 32.2062Z" fill="white"/>
        <path fill-rule="evenodd" clip-rule="evenodd" d="M27.0169 27.7652H16.8989C16.0174 27.7652 15.2604 27.4491 14.628 26.8166C13.9956 26.1842 13.6794 25.4272 13.6794 24.5457V13.9678C13.6794 13.7187 13.7705 13.503 13.9525 13.321C14.1346 13.1391 14.3502 13.0479 14.5992 13.0479H31.1558C32.6794 13.0479 33.9805 13.587 35.0582 14.6649C36.1358 15.7427 36.6751 17.0435 36.6751 18.5671C36.6751 20.0906 36.1358 21.3912 35.0582 22.4692C33.9804 23.5472 32.6794 24.086 31.1558 24.086H30.2362V24.5458C30.2362 25.4273 29.92 26.1843 29.2877 26.8167C28.6552 27.4491 27.8982 27.7652 27.0169 27.7652ZM31.1562 15.8077H30.2362V21.3267H31.1562C31.9227 21.3267 32.5743 21.0584 33.1107 20.5219C33.6472 19.9851 33.9156 19.3335 33.9156 18.5672C33.9156 17.8005 33.6472 17.1491 33.1107 16.6125C32.5743 16.076 31.9228 15.8077 31.1562 15.8077Z" fill="white"/>
    </g>
    <defs>
        <filter id="filter0_d_666_951" x="8" y="13.0479" width="30.6751" height="24.2363" filterUnits="userSpaceOnUse" color-interpolation-filters="sRGB">
            <feFlood flood-opacity="0" result="BackgroundImageFix"/>
            <feColorMatrix in="SourceAlpha" type="matrix" values="0 0 0 0 0 0 0 0 0 0 0 0 0 0 0 0 0 0 127 0" result="hardAlpha"/>
            <feOffset dy="2"/>
            <feGaussianBlur stdDeviation="1"/>
            <feComposite in2="hardAlpha" operator="out"/>
            <feColorMatrix type="matrix" values="0 0 0 0 0 0 0 0 0 0 0 0 0 0 0 0 0 0 0.2 0"/>
            <feBlend mode="normal" in2="BackgroundImageFix" result="effect1_dropShadow_666_951"/>
            <feBlend mode="normal" in="SourceGraphic" in2="effect1_dropShadow_666_951" result="shape"/>
        </filter>
        <linearGradient id="paint0_linear_666_951" x1="23" y1="0" x2="23" y2="46" gradientUnits="userSpaceOnUse">
            <stop stop-color="#FF80AB"/>
            <stop offset="1" stop-color="#F50057"/>
        </linearGradient>
    </defs>
</svg>
