<svg width="46" height="46" viewBox="0 0 46 46" fill="none" xmlns="http://www.w3.org/2000/svg">
<rect width="46" height="46" rx="10" fill="url(#paint0_linear_672_1947)"/>
<g clip-path="url(#clip0_672_1947)" filter="url(#filter0_d_672_1947)">
<path d="M16.4155 26.0235H16.3997V24.0619C16.3997 23.0313 15.5613 22.1929 14.5308 22.1929H13.2634C12.2328 22.1929 11.3944 23.0313 11.3944 24.0619V26.0235H11.3785C10.4524 26.0235 9.69897 26.777 9.69897 27.7031V36.3204C9.69897 37.2465 10.4524 38 11.3785 38H16.4156C17.3416 38 18.095 37.2465 18.095 36.3204V27.7031C18.095 26.777 17.3416 26.0235 16.4155 26.0235ZM12.5692 24.0619C12.5692 23.6791 12.8806 23.3677 13.2634 23.3677H14.5309C14.9137 23.3677 15.225 23.6791 15.225 24.0619V26.0235H12.5692V24.0619ZM16.9202 36.3204C16.9202 36.5941 16.6891 36.8252 16.4155 36.8252H11.3785C11.1049 36.8252 10.8738 36.5941 10.8738 36.3204V27.7031C10.8738 27.4247 11.1002 27.1983 11.3785 27.1983H16.4156C16.6891 27.1983 16.9203 27.4294 16.9203 27.7031V36.3204H16.9202ZM30.5258 10.0748V10.8285H34.7136C35.038 10.8285 35.301 11.0915 35.301 11.4159C35.301 11.7403 35.038 12.0033 34.7136 12.0033H29.9384C29.614 12.0033 29.351 11.7403 29.351 11.4159V9.48737C29.351 9.16299 29.614 8.89999 29.9384 8.89999H34.7136C35.038 8.89999 35.301 9.16299 35.301 9.48737C35.301 9.81176 35.038 10.0748 34.7136 10.0748H30.5258ZM34.3591 24.6417C34.4703 24.7624 34.5258 24.9243 34.5124 25.0879L33.493 37.4608C33.4678 37.7655 33.2133 38 32.9075 38H26.8403C26.5159 38 26.2529 37.737 26.2529 37.4126C26.2529 37.0882 26.5159 36.8252 26.8403 36.8252H32.3666L33.2891 25.627H26.8403C26.5159 25.627 26.2529 25.364 26.2529 25.0396C26.2529 24.7152 26.5159 24.4522 26.8403 24.4522H33.927C34.0912 24.4522 34.2478 24.521 34.3591 24.6417ZM27.4508 22.8488V8.53742C27.4508 7.68974 28.1406 7 28.9884 7H34.7137C35.0381 7 35.3011 7.263 35.3011 7.58739C35.3011 7.91178 35.0381 8.17478 34.7137 8.17478H28.9884C28.7883 8.17478 28.6257 8.33749 28.6257 8.53742V22.8488C28.6257 23.1732 28.3627 23.4362 28.0383 23.4362C27.7139 23.4362 27.4508 23.1732 27.4508 22.8488ZM30.5258 13.9034V14.6571H34.7136C35.038 14.6571 35.301 14.9201 35.301 15.2445C35.301 15.5688 35.038 15.8318 34.7136 15.8318H29.9384C29.614 15.8318 29.351 15.5688 29.351 15.2445V13.316C29.351 12.9916 29.614 12.7286 29.9384 12.7286H34.7136C35.038 12.7286 35.301 12.9916 35.301 13.316C35.301 13.6404 35.038 13.9034 34.7136 13.9034H30.5258ZM23.491 16.557H22.5116V13.9396C22.5116 13.0821 22.0181 12.3377 21.3004 11.9753V9.93452C21.3004 9.61014 21.0374 9.34714 20.713 9.34714H20.1034V7.60332C20.1036 7.59811 20.1036 7.59268 20.1036 7.58739C20.1036 7.263 19.8406 7 19.5162 7H13.9924C13.4268 7 12.9667 7.46022 12.9667 8.0258V9.224C12.9667 9.54839 13.2297 9.81139 13.5541 9.81139C13.8785 9.81139 14.1415 9.54839 14.1415 9.224V8.17478H18.9286V9.34714H18.3191C17.9948 9.34714 17.7317 9.61014 17.7317 9.93452V11.9753C17.014 12.3378 16.5205 13.0821 16.5205 13.9396V16.557H15.5411C14.6151 16.557 13.8617 17.3104 13.8617 18.2365V20.2036C13.8617 20.528 14.1247 20.791 14.449 20.791C14.7734 20.791 15.0364 20.528 15.0364 20.2036V18.2365C15.0364 17.9583 15.2628 17.7318 15.5411 17.7318H23.4909C23.7692 17.7318 23.9956 17.9583 23.9956 18.2365V36.3204C23.9956 36.5988 23.7692 36.8252 23.4909 36.8252H19.4449C19.1206 36.8252 18.8576 37.0882 18.8576 37.4126C18.8576 37.737 19.1206 38 19.4449 38H23.4909C24.4169 38 25.1704 37.2465 25.1704 36.3204V18.2365C25.1705 17.3104 24.417 16.557 23.491 16.557ZM18.9066 10.5219H20.1257V11.7409H18.9066V10.5219ZM21.3369 16.557H17.6954V13.9396C17.6954 13.375 18.1547 12.9157 18.7194 12.9157H20.313C20.8774 12.9157 21.3368 13.375 21.3368 13.9396L21.3369 16.557ZM35.301 17.1445C35.301 17.4689 35.038 17.7319 34.7136 17.7319H30.5258V22.8488C30.5258 23.1732 30.2628 23.4362 29.9384 23.4362C29.614 23.4362 29.351 23.1732 29.351 22.8488V17.1445C29.351 16.8201 29.614 16.5571 29.9384 16.5571H34.7136C35.038 16.5571 35.301 16.8201 35.301 17.1445Z" fill="white"/>
</g>
<defs>
<filter id="filter0_d_672_1947" x="5" y="7" width="35" height="35" filterUnits="userSpaceOnUse" color-interpolation-filters="sRGB">
<feFlood flood-opacity="0" result="BackgroundImageFix"/>
<feColorMatrix in="SourceAlpha" type="matrix" values="0 0 0 0 0 0 0 0 0 0 0 0 0 0 0 0 0 0 127 0" result="hardAlpha"/>
<feOffset dy="2"/>
<feGaussianBlur stdDeviation="1"/>
<feComposite in2="hardAlpha" operator="out"/>
<feColorMatrix type="matrix" values="0 0 0 0 0 0 0 0 0 0 0 0 0 0 0 0 0 0 0.2 0"/>
<feBlend mode="normal" in2="BackgroundImageFix" result="effect1_dropShadow_672_1947"/>
<feBlend mode="normal" in="SourceGraphic" in2="effect1_dropShadow_672_1947" result="shape"/>
</filter>
<linearGradient id="paint0_linear_672_1947" x1="23" y1="0" x2="23" y2="46" gradientUnits="userSpaceOnUse">
<stop stop-color="#F06292"/>
<stop offset="1" stop-color="#EC407A"/>
</linearGradient>
<clipPath id="clip0_672_1947">
<rect width="31" height="31" fill="white" transform="translate(7 7)"/>
</clipPath>
</defs>
</svg>
