<svg xmlns="http://www.w3.org/2000/svg" width="46" height="46" viewBox="0 0 46 46" fill="none">
    <rect width="46" height="46" rx="10" fill="url(#paint0_linear_664_323)"/>
    <g filter="url(#filter0_d_664_323)">
        <path fill-rule="evenodd" clip-rule="evenodd" d="M34.614 34.651C33.7267 35.5178 32.5237 36.0031 31.2705 35.9999H14.7295C12.1175 35.9999 10 33.9261 10 31.368V19.6202C10.024 18.6128 10.5101 17.6696 11.3233 17.0523L20.2432 10.0084C21.7836 8.70098 24.0587 8.66056 25.6466 9.91242L34.7747 17.0523C35.5513 17.6884 36 18.6288 36 19.6202V31.38C36 32.6074 35.5013 33.7843 34.614 34.651ZM23.8447 32.1812C23.8447 32.7835 23.4247 33 23.0137 33C22.6027 33 22.1735 32.7835 22.1735 32.1812V31.6071C20.7854 31.4847 19.5616 31.0424 18.8037 30.3176C18.2922 29.8376 18 29.2918 18 28.7271C18 27.9929 18.5205 27.5788 19.169 27.5788C19.5708 27.5788 19.8995 27.7106 20.4201 28.1624C21.2329 28.9247 22.1279 29.32 23.0502 29.32C24.3379 29.32 25.032 28.7271 25.032 27.8235C25.032 27.1176 24.5114 26.7035 23.1963 26.4118L21.4795 26.0259C19.2694 25.5553 18.1553 24.3318 18.1553 22.4118C18.1553 20.2376 19.7443 18.7129 22.21 18.4776V17.8188C22.21 17.2071 22.6301 17 23.0411 17C23.4521 17 23.8721 17.2165 23.8721 17.8188V18.4965C25.0868 18.6565 26.1735 19.0894 26.8493 19.7671C27.3607 20.2659 27.6347 20.8212 27.6347 21.3482C27.6347 21.9694 27.1598 22.4024 26.5845 22.4024C26.0913 22.4024 25.7169 22.2235 25.2603 21.8188C24.484 21.0565 23.8265 20.7553 22.9132 20.7553C21.8356 20.7553 21.1507 21.3859 21.1507 22.1765C21.1507 22.8824 21.6804 23.3341 22.8402 23.5694L24.5662 23.9365C26.8676 24.3976 28 25.5741 28 27.5035C28 29.7341 26.4018 31.2776 23.8447 31.5882V32.1812Z" fill="white"/>
    </g>
    <defs>
        <filter id="filter0_d_664_323" x="8" y="9" width="30" height="30.9999" filterUnits="userSpaceOnUse" color-interpolation-filters="sRGB">
            <feFlood flood-opacity="0" result="BackgroundImageFix"/>
            <feColorMatrix in="SourceAlpha" type="matrix" values="0 0 0 0 0 0 0 0 0 0 0 0 0 0 0 0 0 0 127 0" result="hardAlpha"/>
            <feOffset dy="2"/>
            <feGaussianBlur stdDeviation="1"/>
            <feComposite in2="hardAlpha" operator="out"/>
            <feColorMatrix type="matrix" values="0 0 0 0 0 0 0 0 0 0 0 0 0 0 0 0 0 0 0.2 0"/>
            <feBlend mode="normal" in2="BackgroundImageFix" result="effect1_dropShadow_664_323"/>
            <feBlend mode="normal" in="SourceGraphic" in2="effect1_dropShadow_664_323" result="shape"/>
        </filter>
        <linearGradient id="paint0_linear_664_323" x1="23" y1="0" x2="23" y2="46" gradientUnits="userSpaceOnUse">
            <stop stop-color="#757575"/>
            <stop offset="1" stop-color="#616161"/>
        </linearGradient>
    </defs>
</svg>
