<svg width="46" height="46" viewBox="0 0 46 46" fill="none" xmlns="http://www.w3.org/2000/svg">
<g id="Category/Repair">
<rect width="46" height="46" rx="10" fill="url(#paint0_linear_666_961)"/>
<g id="Group" filter="url(#filter0_d_666_961)">
<g id="Group_2">
<path id="Vector" d="M21.4336 21.5248L17.5777 17.6691L18.6931 16.5537L22.549 20.4095L23.1838 19.7748L19.1349 15.7259L20.3004 14.5605C20.3097 14.5512 20.3183 14.5416 20.3266 14.5315C20.3358 14.5238 20.3449 14.5159 20.3536 14.5072L22.4615 12.3993C22.6346 12.2263 22.6372 11.9465 22.4672 11.7704L22.4433 11.7454C22.4233 11.7244 22.4033 11.7035 22.3828 11.6829C21.329 10.6291 19.961 10 18.7235 10C17.8888 10 17.1708 10.2768 16.647 10.8006C16.6356 10.812 16.6251 10.824 16.6151 10.8364C16.6082 10.8424 16.6013 10.8483 16.5948 10.8548L11.8136 15.636C11.6384 15.8113 11.6384 16.0955 11.8136 16.2708L12.5199 16.977L11.9367 17.5602L11.2304 16.8539C11.1462 16.7697 11.032 16.7224 10.913 16.7224C10.794 16.7224 10.6798 16.7697 10.5956 16.8539L9.13146 18.3182C8.95618 18.4935 8.95618 18.7777 9.13146 18.9529L12.2024 22.0238C12.2866 22.1079 12.4007 22.1553 12.5198 22.1553C12.6388 22.1553 12.753 22.108 12.8372 22.0238L14.3012 20.5595C14.4765 20.3843 14.4765 20.1002 14.3012 19.9248L13.595 19.2186L14.1783 18.6354L14.8844 19.3416C14.9721 19.4293 15.0869 19.473 15.2018 19.473C15.3167 19.473 15.4316 19.4292 15.5192 19.3416L16.75 18.1108L20.7989 22.1597L21.4336 21.5248ZM18.7235 10.8977C19.6383 10.8977 20.6575 11.3377 21.5037 12.0876L20.0362 13.5551L17.6421 11.1609C17.9455 10.9877 18.312 10.8977 18.7235 10.8977ZM12.5198 21.0716L10.0836 18.6355L10.913 17.8061L13.349 20.2422L12.5198 21.0716ZM12.9927 18.5515L12.6038 18.1626L13.1546 17.6118L13.5434 18.0007L12.9927 18.5515ZM15.2018 18.3894L12.7658 15.9533L16.9122 11.8069L19.3483 14.2431L15.2018 18.3894Z" fill="white"/>
<path id="Vector_2" d="M36.3712 32.9621L27.136 23.727L26.5013 24.3617L35.4192 33.2796L34.3039 34.3951L25.3858 25.477L24.7511 26.1119L33.9865 35.3473C34.0707 35.4314 34.1849 35.4787 34.3038 35.4787C34.423 35.4787 34.5372 35.4314 34.6213 35.3473L36.3713 33.5969C36.5466 33.4216 36.5466 33.1375 36.3712 32.9621Z" fill="white"/>
</g>
<path id="Vector_3" d="M36.6271 12.8663C36.5762 12.7205 36.4539 12.6112 36.3033 12.5767C36.1529 12.5424 35.9952 12.5877 35.8861 12.697L34.0725 14.5104L32.3722 12.8099L34.1857 10.9966C34.2949 10.8874 34.3404 10.7297 34.3059 10.5792C34.2715 10.4286 34.1622 10.3063 34.0164 10.2554C33.5642 10.0976 33.0912 10.0175 32.6105 10.0175C31.474 10.0175 30.4056 10.46 29.6021 11.2635C28.7983 12.0671 28.3557 13.1355 28.3557 14.2721C28.3557 14.8218 28.4603 15.3555 28.6582 15.8512L17.2055 27.3037C16.7099 27.1058 16.1764 27.0014 15.6267 27.0014C14.4902 27.0014 13.4218 27.444 12.6181 28.2476C11.4701 29.3957 11.0744 31.1284 11.61 32.6619C11.6609 32.8077 11.7832 32.917 11.9337 32.9515C12.0842 32.9858 12.2419 32.9406 12.3511 32.8314L14.1646 31.0178L15.8651 32.718L14.0515 34.5316C13.9423 34.6408 13.8969 34.7984 13.9313 34.949C13.9657 35.0995 14.0751 35.2217 14.2208 35.2727C14.6729 35.4306 15.1459 35.5107 15.6266 35.5108C15.6267 35.5108 15.6267 35.5108 15.6269 35.5108C16.7631 35.5108 17.8315 35.0681 18.6352 34.2644C19.8727 33.0268 20.1865 31.2101 19.5773 29.6783L31.0315 18.2243C31.5272 18.4222 32.0607 18.5267 32.6105 18.5267C32.6106 18.5267 32.6105 18.5267 32.6106 18.5267C33.7469 18.5267 34.8154 18.0842 35.6189 17.2806C36.767 16.1326 37.1627 14.3998 36.6271 12.8663ZM18.0003 33.6297C17.3663 34.2638 16.5234 34.6131 15.6269 34.6131C15.6269 34.6131 15.6267 34.6131 15.6266 34.6131C15.5035 34.613 15.381 34.6063 15.2595 34.5932L16.8172 33.0355C16.9014 32.9512 16.9487 32.8371 16.9487 32.718C16.9487 32.5991 16.9014 32.4849 16.8172 32.4007L14.482 30.0657C14.3068 29.8905 14.0225 29.8905 13.8472 30.0657L12.2905 31.6223C12.1842 30.6247 12.529 29.6063 13.253 28.8823C13.887 28.2482 14.73 27.8991 15.6267 27.8991C16.5233 27.8991 17.3663 28.2482 18.0003 28.8824C19.3091 30.1912 19.3091 32.3209 18.0003 33.6297ZM19.1868 28.7993L18.0832 27.6956L29.011 16.768L30.1147 17.8716L19.1868 28.7993ZM34.9842 16.6459C34.3502 17.2798 33.5072 17.629 32.6105 17.629C31.7138 17.629 30.8707 17.2798 30.2367 16.6458C29.6027 16.0117 29.2534 15.1687 29.2534 14.272C29.2534 13.3754 29.6027 12.5324 30.2368 11.8983C30.8707 11.2643 31.7138 10.9151 32.6105 10.9151C32.7338 10.9151 32.8562 10.9218 32.9777 10.935L31.42 12.4926C31.3358 12.5767 31.2885 12.6909 31.2885 12.8099C31.2885 12.929 31.3358 13.0431 31.42 13.1272L33.755 15.4624C33.9304 15.6377 34.2147 15.6377 34.3899 15.4625L35.9465 13.9058C36.0529 14.9035 35.7081 15.9219 34.9842 16.6459Z" fill="white"/>
</g>
</g>
<defs>
<filter id="filter0_d_666_961" x="7" y="10" width="31.8625" height="29.5108" filterUnits="userSpaceOnUse" color-interpolation-filters="sRGB">
<feFlood flood-opacity="0" result="BackgroundImageFix"/>
<feColorMatrix in="SourceAlpha" type="matrix" values="0 0 0 0 0 0 0 0 0 0 0 0 0 0 0 0 0 0 127 0" result="hardAlpha"/>
<feOffset dy="2"/>
<feGaussianBlur stdDeviation="1"/>
<feComposite in2="hardAlpha" operator="out"/>
<feColorMatrix type="matrix" values="0 0 0 0 0 0 0 0 0 0 0 0 0 0 0 0 0 0 0.2 0"/>
<feBlend mode="normal" in2="BackgroundImageFix" result="effect1_dropShadow_666_961"/>
<feBlend mode="normal" in="SourceGraphic" in2="effect1_dropShadow_666_961" result="shape"/>
</filter>
<linearGradient id="paint0_linear_666_961" x1="23" y1="0" x2="23" y2="46" gradientUnits="userSpaceOnUse">
<stop stop-color="#EC407A"/>
<stop offset="1" stop-color="#E91E63"/>
</linearGradient>
</defs>
</svg>
