<svg xmlns="http://www.w3.org/2000/svg" width="20" height="18" viewBox="0 0 20 18" fill="none">
    <path d="M13 11V14.6C13 15.4401 13 15.8601 12.8365 16.181C12.6927 16.4632 12.4632 16.6927 12.181 16.8365C11.8601 17 11.4401 17 10.6 17H5.40001C4.55994 17 4.1399 17 3.81903 16.8365C3.53679 16.6927 3.30731 16.4632 3.1635 16.181C3.00001 15.8601 3.00001 15.4401 3.00001 14.6V7M17 7V17M3.00001 13H13M3.55778 1.88446L1.5789 5.84223C1.38722 6.22559 1.29138 6.41727 1.3144 6.57308C1.3345 6.70914 1.40976 6.8309 1.52246 6.90973C1.65153 7 1.86583 7 2.29444 7H17.7056C18.1342 7 18.3485 7 18.4776 6.90973C18.5903 6.8309 18.6655 6.70914 18.6856 6.57308C18.7086 6.41727 18.6128 6.22559 18.4211 5.84223L16.4422 1.88446C16.2817 1.5634 16.2014 1.40287 16.0817 1.28558C15.9758 1.18187 15.8482 1.10299 15.7081 1.05465C15.5496 1 15.3701 1 15.0112 1H4.98887C4.62991 1 4.45043 1 4.29198 1.05465C4.15185 1.10299 4.02422 1.18187 3.91833 1.28558C3.79858 1.40287 3.71832 1.5634 3.55778 1.88446Z" stroke="white" stroke-width="1.5" stroke-linecap="round" stroke-linejoin="round"/>
</svg>
