<svg width="26" height="26" viewBox="0 0 26 26" fill="none" xmlns="http://www.w3.org/2000/svg">
<path d="M12.0084 2.29659C12.3226 1.5575 12.4797 1.18795 12.6985 1.07415C12.8885 0.975282 13.1116 0.975282 13.3016 1.07415C13.5203 1.18795 13.6775 1.5575 13.9916 2.29659L16.4941 8.18356C16.587 8.40205 16.6334 8.5113 16.7054 8.59496C16.7689 8.66898 16.8466 8.72819 16.9334 8.76872C17.0315 8.81454 17.1449 8.8271 17.3718 8.8522L23.4845 9.52872C24.2519 9.61364 24.6355 9.65611 24.8064 9.8391C24.9547 9.99803 25.0237 10.2206 24.9927 10.4407C24.9572 10.694 24.6706 10.9648 24.0973 11.5065L19.5312 15.8214C19.3618 15.9815 19.277 16.0616 19.2234 16.1591C19.1759 16.2455 19.1462 16.3412 19.1363 16.4403C19.125 16.5523 19.1486 16.6692 19.196 16.9033L20.4714 23.2083C20.6315 24 20.7116 24.3957 20.5984 24.6226C20.5 24.8198 20.3195 24.9572 20.1104 24.9944C19.8696 25.0371 19.5354 24.835 18.8669 24.4307L13.5424 21.2104C13.3448 21.0909 13.2461 21.0313 13.141 21.0078C13.0481 20.9871 12.952 20.9871 12.859 21.0078C12.754 21.0313 12.6552 21.0909 12.4576 21.2104L7.13314 24.4307C6.46468 24.835 6.13044 25.0371 5.88969 24.9944C5.68055 24.9572 5.5 24.8198 5.4017 24.6226C5.28853 24.3957 5.36858 24 5.5287 23.2083L6.80403 16.9033C6.85136 16.6692 6.87503 16.5523 6.86379 16.4403C6.85385 16.3412 6.82417 16.2455 6.77667 16.1591C6.723 16.0616 6.63826 15.9815 6.4688 15.8214L1.90277 11.5065C1.32953 10.9648 1.0429 10.694 1.00727 10.4407C0.976324 10.2206 1.04528 9.99803 1.19366 9.8391C1.36449 9.65611 1.7482 9.61364 2.51562 9.52872L8.62827 8.8522C8.85515 8.8271 8.96857 8.81454 9.06666 8.76872C9.15345 8.72819 9.23115 8.66898 9.29474 8.59496C9.3666 8.5113 9.41304 8.40205 9.50593 8.18356L12.0084 2.29659Z" stroke="white" stroke-width="1.5" stroke-linecap="round" stroke-linejoin="round"/>
</svg>
