<svg width="20" height="20" viewBox="0 0 20 20" fill="none" xmlns="http://www.w3.org/2000/svg">
<g id="Tick Round">
<path id="Combined Shape" fill-rule="evenodd" clip-rule="evenodd" d="M10 20C15.5228 20 20 15.5228 20 10C20 4.47715 15.5228 0 10 0C4.47715 0 0 4.47715 0 10C0 15.5228 4.47715 20 10 20ZM9.4301 12.9899L14.1801 8.2399C14.5201 7.8999 14.5201 7.3499 14.1801 6.9999C13.8401 6.6599 13.2801 6.6599 12.9401 6.9999L8.8101 11.1299L7.0601 9.3799C6.7201 9.0399 6.1601 9.0399 5.8201 9.3799C5.4801 9.7199 5.4801 10.2699 5.8201 10.6199L8.2001 12.9899C8.3701 13.1599 8.5901 13.2399 8.8101 13.2399C9.0401 13.2399 9.2601 13.1599 9.4301 12.9899Z" fill="white"/>
</g>
</svg>
