<svg width="18" height="18" viewBox="0 0 18 18" fill="none" xmlns="http://www.w3.org/2000/svg">
<g id="ic / 24px / Outline / 2 User">
<g id="2 User">
<path id="Stroke 1" d="M12.0151 8.185C13.3808 8.185 14.4878 7.078 14.4878 5.71225C14.4878 4.34725 13.3808 3.2395 12.0151 3.2395" stroke="white" stroke-width="1.5" stroke-linecap="round" stroke-linejoin="round"/>
<path id="Stroke 3" d="M13.1522 10.8723C13.5602 10.9001 13.9652 10.9586 14.3649 11.0471C14.9192 11.1573 15.5867 11.3846 15.8237 11.8818C15.9752 12.2006 15.9752 12.5718 15.8237 12.8906C15.5874 13.3878 14.9192 13.6151 14.3649 13.7291" stroke="white" stroke-width="1.5" stroke-linecap="round" stroke-linejoin="round"/>
<path id="Stroke 5" fill-rule="evenodd" clip-rule="evenodd" d="M7.19355 11.4045C9.96105 11.4045 12.3251 11.8238 12.3251 13.4985C12.3251 15.174 9.97605 15.6075 7.19355 15.6075C4.42606 15.6075 2.06281 15.189 2.06281 13.5135C2.06281 11.838 4.41106 11.4045 7.19355 11.4045Z" stroke="white" stroke-width="1.5" stroke-linecap="round" stroke-linejoin="round"/>
<path id="Stroke 7" fill-rule="evenodd" clip-rule="evenodd" d="M7.19355 9.01401C5.36805 9.01401 3.90555 7.55076 3.90555 5.72526C3.90555 3.90051 5.36805 2.43726 7.19355 2.43726C9.01905 2.43726 10.4823 3.90051 10.4823 5.72526C10.4823 7.55076 9.01905 9.01401 7.19355 9.01401Z" stroke="white" stroke-width="1.5" stroke-linecap="round" stroke-linejoin="round"/>
</g>
</g>
</svg>
