<svg width="48" height="36" viewBox="0 0 48 36" fill="none" xmlns="http://www.w3.org/2000/svg">
<g clip-path="url(#clip0_1065_2855)">
<path d="M0 0H48V36H0V0Z" fill="white"/>
<path d="M0 0H48V2.76842H0V0ZM0 5.53684H48V8.30526H0V5.53684ZM0 11.0737H48V13.8421H0V11.0737ZM0 16.6105H48V19.3789H0V16.6105ZM0 22.1579H48V24.9263H0V22.1579ZM0 27.6947H48V30.4632H0V27.6947ZM0 33.2316H48V36H0V33.2316Z" fill="#D80027"/>
<path d="M0 0H24V19.3789H0V0Z" fill="#2E52B2"/>
<path d="M4.47251 14.621L4.09825 13.2737L3.68655 14.621H2.45146L3.45263 15.4316L3.07836 16.7789L4.09825 15.9473L5.09006 16.7789L4.70643 15.4316L5.72632 14.621H4.47251ZM9.74035 14.621L9.35673 13.2737L8.96374 14.621H7.72865L8.72982 15.4316L8.35556 16.7789L9.35673 15.9473L10.3673 16.7789L9.99298 15.4316L10.9942 14.621H9.74035ZM15.0269 14.621L14.6246 13.2737L14.2503 14.621H12.9871L14.0164 15.4316L13.6234 16.7789L14.6246 15.9473L15.6538 16.7789L15.2608 15.4316L16.262 14.621H15.0269ZM20.2854 14.621L19.9111 13.2737L19.5181 14.621H18.2737L19.2842 15.4316L18.9099 16.7789L19.9111 15.9473L20.9216 16.7789L20.5193 15.4316L21.5485 14.621H20.2854ZM9.35673 7.92629L8.96374 9.27366H7.72865L8.72982 10.1052L8.35556 11.4316L9.35673 10.6105L10.3673 11.4316L9.99298 10.1052L10.9942 9.27366H9.74035L9.35673 7.92629ZM4.09825 7.92629L3.68655 9.27366H2.45146L3.45263 10.1052L3.07836 11.4316L4.09825 10.6105L5.09006 11.4316L4.70643 10.1052L5.72632 9.27366H4.47251L4.09825 7.92629ZM14.6246 7.92629L14.2503 9.27366H12.9871L14.0164 10.1052L13.6234 11.4316L14.6246 10.6105L15.6538 11.4316L15.2608 10.1052L16.262 9.27366H15.0269L14.6246 7.92629ZM19.9111 7.92629L19.5181 9.27366H18.2737L19.2842 10.1052L18.9099 11.4316L19.9111 10.6105L20.9216 11.4316L20.5193 10.1052L21.5485 9.27366H20.2854L19.9111 7.92629ZM4.09825 2.59998L3.68655 3.92629H2.45146L3.45263 4.75787L3.07836 6.09471L4.09825 5.26313L5.09006 6.09471L4.70643 4.75787L5.72632 3.92629H4.47251L4.09825 2.59998ZM9.35673 2.59998L8.96374 3.92629H7.72865L8.72982 4.75787L8.35556 6.09471L9.35673 5.26313L10.3673 6.09471L9.99298 4.75787L10.9942 3.92629H9.74035L9.35673 2.59998ZM14.6246 2.59998L14.2503 3.92629H12.9871L14.0164 4.75787L13.6234 6.09471L14.6246 5.26313L15.6538 6.09471L15.2608 4.75787L16.262 3.92629H15.0269L14.6246 2.59998ZM19.9111 2.59998L19.5181 3.92629H18.2737L19.2842 4.75787L18.9099 6.09471L19.9111 5.26313L20.9216 6.09471L20.5193 4.75787L21.5485 3.92629H20.2854L19.9111 2.59998Z" fill="white"/>
</g>
<defs>
<clipPath id="clip0_1065_2855">
<rect width="48" height="36" fill="white"/>
</clipPath>
</defs>
</svg>
